HIERARCHY
ROOT Hips
{
	OFFSET -0.001795 -0.223333 0.028219
	CHANNELS 6 Xposition Yposition Zposition Zrotation Yrotation Xrotation 
	JOINT LeftUpLeg
	{
		OFFSET 0.069520 -0.091406 -0.006815
		CHANNELS 3 Zrotation Yrotation Xrotation
		JOINT LeftLeg
		{
			OFFSET 0.034277 -0.375199 -0.004496
			CHANNELS 3 Zrotation Yrotation Xrotation
			JOINT LeftFoot
			{
				OFFSET -0.013596 -0.397961 -0.043693
				CHANNELS 3 Zrotation Yrotation Xrotation
				JOINT LeftToe
				{
					OFFSET 0.026358 -0.055791 0.119288
					CHANNELS 3 Zrotation Yrotation Xrotation
					End Site
					{
						OFFSET 0.000000 0.000000 0.000000
					}
				}
			}
		}
	}
	JOINT RightUpLeg
	{
		OFFSET -0.067670 -0.090522 -0.004320
		CHANNELS 3 Zrotation Yrotation Xrotation
		JOINT RightLeg
		{
			OFFSET -0.038290 -0.382569 -0.008850
			CHANNELS 3 Zrotation Yrotation Xrotation
			JOINT RightFoot
			{
				OFFSET 0.015774 -0.398415 -0.042312
				CHANNELS 3 Zrotation Yrotation Xrotation
				JOINT RightToe
				{
					OFFSET -0.025372 -0.048144 0.123348
					CHANNELS 3 Zrotation Yrotation Xrotation
					End Site
					{
						OFFSET 0.000000 0.000000 0.000000
					}
				}
			}
		}
	}
	JOINT Spine
	{
		OFFSET -0.002533 0.108963 -0.026696
		CHANNELS 3 Zrotation Yrotation Xrotation
		JOINT Spine1
		{
			OFFSET 0.005487 0.135180 0.001092
			CHANNELS 3 Zrotation Yrotation Xrotation
			JOINT Spine2
			{
				OFFSET 0.001457 0.052922 0.025425
				CHANNELS 3 Zrotation Yrotation Xrotation
				JOINT Neck
				{
					OFFSET -0.002778 0.213870 -0.042857
					CHANNELS 3 Zrotation Yrotation Xrotation
					JOINT Head
					{
						OFFSET 0.005152 0.064970 0.051349
						CHANNELS 3 Zrotation Yrotation Xrotation
						End Site
						{
							OFFSET 0.000000 0.000000 0.000000
						}
					}
				}
				JOINT LeftShoulder
				{
					OFFSET 0.078845 0.121749 -0.034090
					CHANNELS 3 Zrotation Yrotation Xrotation
					JOINT LeftArm
					{
						OFFSET 0.090977 0.030469 -0.008868
						CHANNELS 3 Zrotation Yrotation Xrotation
						JOINT LeftForeArm
						{
							OFFSET 0.259612 -0.012772 -0.027456
							CHANNELS 3 Zrotation Yrotation Xrotation
							JOINT LeftHand
							{
								OFFSET 0.249234 0.008986 -0.001171
								CHANNELS 3 Zrotation Yrotation Xrotation
								End Site
								{
									OFFSET 0.000000 0.000000 0.000000
								}
							}
						}
					}
				}
				JOINT RightShoulder
				{
					OFFSET -0.081759 0.118833 -0.038615
					CHANNELS 3 Zrotation Yrotation Xrotation
					JOINT RightArm
					{
						OFFSET -0.096012 0.032551 -0.009143
						CHANNELS 3 Zrotation Yrotation Xrotation
						JOINT RightForeArm
						{
							OFFSET -0.253742 -0.013329 -0.021401
							CHANNELS 3 Zrotation Yrotation Xrotation
							JOINT RightHand
							{
								OFFSET -0.255298 0.007772 -0.005559
								CHANNELS 3 Zrotation Yrotation Xrotation
								End Site
								{
									OFFSET 0.000000 0.000000 0.000000
								}
							}
						}
					}
				}
			}
		}
	}
}
MOTION
Frames: 8
Frame Time: 0.050000
0.000000 0.911197 0.000000 0.902206 -0.393699 -17.589788 0.895994 1.461844 17.184785 -1.377576 0.354522 -8.997772 5.805087 13.268720 6.516757 0.000000 0.000000 0.000000 -0.845339 -1.345838 14.654456 4.517045 -0.490794 2.146118 -8.021723 -19.639392 -2.677601 0.000000 0.000000 0.000000 5.840224 -3.304846 38.282628 -34.677017 -2.605386 -79.525230 12.841783 -28.438549 73.847536 1.143455 -9.499376 -30.567495 0.000000 0.000000 0.000000 -47.490103 -11.243065 24.254687 -25.484861 -21.228256 -9.782329 -4.650109 -30.210905 1.690760 0.000000 0.000000 0.000000 35.417475 9.934581 -2.982303 37.679747 6.784054 -8.972818 10.158198 25.710603 3.132815 0.000000 0.000000 0.000000 
0.000122 0.906868 -0.002936 0.442995 0.686229 -17.894741 1.408964 1.311497 16.922402 -1.570268 0.343104 -8.519902 5.609634 12.614350 4.652023 0.000000 0.000000 0.000000 -0.192782 -1.513542 15.041270 4.266111 -0.472980 1.845571 -8.426094 -20.893392 -3.693017 0.000000 0.000000 0.000000 6.488840 -3.743165 39.182009 -40.605968 -4.139147 -80.710389 14.696365 -34.135044 74.580836 1.516278 -11.075573 -34.275102 0.000000 0.000000 0.000000 -47.066279 -10.532141 25.827316 -26.076077 -23.305487 -10.327438 -3.371909 -29.448108 1.199287 0.000000 0.000000 0.000000 33.013011 10.986536 -4.445059 41.115928 5.089790 -9.816569 10.138694 27.568886 3.242956 0.000000 0.000000 0.000000 
0.000246 0.904338 -0.005071 1.108379 2.145712 -19.556446 1.500025 1.223361 16.732290 -3.219058 0.381149 -5.255072 5.264653 11.606738 2.854354 0.000000 0.000000 0.000000 -1.309217 -1.477336 15.523743 4.777450 -0.566331 4.354943 -8.824939 -22.300684 -4.885232 0.000000 0.000000 0.000000 6.306829 -4.082816 41.497183 -46.406749 -4.174846 -79.177656 17.526697 -38.636838 70.466909 0.319479 -11.239150 -34.701889 0.000000 0.000000 0.000000 -45.628722 -11.509222 27.732536 -27.161048 -22.812929 -10.052627 -4.096023 -30.082370 1.106858 0.000000 0.000000 0.000000 30.770718 10.723457 -7.428174 42.587862 2.446678 -9.671182 11.990282 27.505016 3.265172 0.000000 0.000000 0.000000 
0.000182 0.894770 -0.006444 1.481175 2.290272 -21.610604 1.482719 1.187749 16.219023 -3.899369 0.428312 -0.277421 6.051726 12.105065 -1.778324 0.000000 0.000000 0.000000 -2.737777 -1.258871 14.842007 6.555866 -0.961210 9.851800 -8.916970 -22.906409 -8.819709 0.000000 0.000000 0.000000 5.595583 -4.000527 43.112436 -49.832599 -4.838350 -82.420463 16.964820 -43.084446 74.698712 -0.118032 -13.264599 -35.812688 0.000000 0.000000 0.000000 -44.921389 -10.854489 29.653003 -27.901572 -23.326864 -11.263308 -3.576351 -29.708507 0.593697 0.000000 0.000000 0.000000 30.399022 11.455269 -9.647822 41.931905 -0.085116 -10.807929 13.618379 27.966956 3.512259 0.000000 0.000000 0.000000 
0.000169 0.881864 -0.007750 1.820763 1.559452 -23.254408 1.449470 1.069037 14.023013 -4.494374 0.522310 7.187433 7.349759 13.835697 -7.487471 0.000000 0.000000 0.000000 -3.597264 -1.016384 13.137075 7.517240 -1.318773 16.306917 -8.945399 -23.100784 -13.425740 0.000000 0.000000 0.000000 5.794073 -4.141050 44.996597 -61.896255 -7.264353 -84.623420 21.482638 -54.805050 73.750253 -2.089726 -16.463994 -36.806153 0.000000 0.000000 0.000000 -44.167860 -9.597231 34.637840 -27.874095 -26.064971 -11.790565 -1.476721 -29.361022 -0.885155 0.000000 0.000000 0.000000 25.542019 12.794244 -15.749303 44.751781 -6.816405 -12.214964 17.937421 27.243413 3.115427 0.000000 0.000000 0.000000 
0.000182 0.861443 -0.009767 2.219080 1.220884 -25.163341 1.756952 0.940600 12.245976 -5.912626 0.876416 14.411000 8.500373 15.483682 -15.120840 0.000000 0.000000 0.000000 -4.425365 -0.812154 11.309390 8.365531 -1.777095 23.690353 -9.064997 -23.959697 -19.780313 0.000000 0.000000 0.000000 5.121317 -3.616655 43.639592 -72.509852 -1.690571 -80.765707 31.346395 -65.598946 61.674638 -4.286572 -17.740741 -41.166574 0.000000 0.000000 0.000000 -45.618555 -5.140665 42.144783 -23.551022 -30.630067 -12.142544 1.494131 -28.042507 -2.386714 0.000000 0.000000 0.000000 21.591298 14.647391 -25.848437 45.311141 -17.675386 -12.717603 20.767413 25.443128 1.570549 0.000000 0.000000 0.000000 
-0.000749 0.837706 -0.012731 2.775946 0.942869 -27.866946 1.936111 0.824221 10.545020 -7.268156 1.436531 23.064160 9.365720 17.258753 -22.239426 0.000000 0.000000 0.000000 -6.286395 -0.559233 8.505901 10.501131 -2.976165 34.128391 -9.165080 -24.576987 -24.243917 0.000000 0.000000 0.000000 4.600337 -3.578857 46.311659 -80.965011 -8.931543 -90.781550 16.559388 -75.920206 87.059950 3.105580 -26.995919 -48.379167 0.000000 0.000000 0.000000 -40.242216 -4.721040 42.019202 -27.216588 -31.960517 -13.165770 0.819750 -28.629867 -3.425603 0.000000 0.000000 0.000000 19.696268 14.545407 -33.756351 46.701014 -24.745524 -17.426846 23.989181 23.035377 0.915777 0.000000 0.000000 0.000000 
-0.003946 0.804036 -0.017463 3.119965 1.225192 -31.210195 2.674924 0.656866 8.452961 -8.930804 2.338101 33.556738 10.038971 18.714665 -30.487923 0.000000 0.000000 0.000000 -8.447623 -0.425538 4.855853 13.495617 -5.232202 45.784901 -9.678984 -27.766264 -26.653003 0.000000 0.000000 0.000000 5.889819 -4.037123 47.655351 -171.848299 30.673118 -69.183012 145.694655 -2.536588 -72.743978 -3.294523 -3.449122 -39.269934 0.000000 0.000000 0.000000 -25.656691 10.980144 75.629032 -14.323999 -59.185293 -13.327949 15.765642 -25.181683 -7.149397 0.000000 0.000000 0.000000 5.979127 10.087946 -41.876367 56.848105 -43.890579 -36.839613 32.768505 15.715593 -4.767607 0.000000 0.000000 0.000000 
